Coordinates
version=1
nRows=25
nColumns=28
inDegrees=yes

Units are S.I. units (second, meters, Newtons, ...)
Angles are in degrees.

endheader
time	pelvis_tilt	pelvis_list	pelvis_rotation	pelvis_tx	pelvis_ty	pelvis_tz	hip_flexion_r	hip_adduction_r	hip_rotation_r	knee_angle_r	ankle_angle_r	subtalar_angle_r	mtp_angle_r	hip_flexion_l	hip_adduction_l	hip_rotation_l	knee_angle_l	socket_flexion	socket_adduction	socket_rotation	socket_tx	socket_ty	socket_tz	foot_flex	lumbar_extension	lumbar_bending	lumbar_rotation
      0.97916667	     10.59666824	      2.33552393	     -5.80753729	      0.40038886	      1.03420140	      0.26983453	     -2.84926652	      1.98494279	      2.43385706	    -21.57930422	      4.89088065	    -12.31368246	     30.62134551	     -4.69311759	      2.59096845	     -2.92971620	    -54.02139640	      0.00000000	      0.00000000	      0.00000000	      0.00000000	      0.00000000	      0.00000000	      4.30991568	    -19.45819693	     -3.73996970	     10.30083981
      0.98333333	     10.63257053	      2.45835262	     -6.04732361	      0.40503117	      1.03500455	      0.27031500	     -3.30363996	      1.76612405	      2.45282497	    -21.26934544	      4.86636527	    -12.17759227	     30.67143815	     -4.14209497	      2.63339454	     -2.88025188	    -53.81887702	      0.00000000	      0.00000000	      0.00000000	      0.00000000	      0.00000000	      0.00000000	      4.32798833	    -19.48033377	     -3.98136398	     10.41177485
      0.98750000	     10.75616691	      2.59683372	     -6.38427071	      0.40976474	      1.03590980	      0.27079992	     -3.83925660	      1.48622572	      2.52518085	    -20.97563585	      4.76870651	    -11.50187389	     31.14275047	     -3.77240502	      2.74723864	     -2.84623189	    -53.42620669	      0.00000000	      0.00000000	      0.00000000	      0.00000000	      0.00000000	      0.00000000	      4.28015545	    -19.56259467	     -4.29918689	     11.02539969
      0.99166667	     10.75955861	      2.71467355	     -6.58866856	      0.41435503	      1.03659003	      0.27121267	     -4.26061281	      1.28109980	      2.54831598	    -20.66633695	      4.77733441	    -11.41157413	     31.18687156	     -3.20464689	      2.79629434	     -2.71310204	    -53.13055448	      0.00000000	      0.00000000	      0.00000000	      0.00000000	      0.00000000	      0.00000000	      4.31024497	    -19.55548242	     -4.51338707	     11.05676359
      0.99583333	     10.75039237	      2.82654144	     -6.78723568	      0.41899412	      1.03727060	      0.27156159	     -4.67947232	      1.08161159	      2.60659679	    -20.33327102	      4.72371984	    -11.25671615	     31.24304153	     -2.65912119	      2.86010859	     -2.52647956	    -52.74253046	      0.00000000	      0.00000000	      0.00000000	      0.00000000	      0.00000000	      0.00000000	      4.28256908	    -19.52501426	     -4.72011790	     11.15604534
      1.00000000	     10.78449900	      2.81334670	     -7.02728303	      0.42312735	      1.03785677	      0.27193471	     -4.97267965	      0.99842766	      2.55366526	    -20.30823837	      4.72144098	    -11.23494044	     31.25086873	     -2.10939225	      2.77418850	     -2.42713365	    -52.43371630	      0.00000000	      0.00000000	      0.00000000	      0.00000000	      0.00000000	      0.00000000	      4.31045091	    -19.64702992	     -4.77280078	     11.17451779
      1.00416667	     10.72203493	      2.99477810	     -7.16914117	      0.42803003	      1.03848274	      0.27225842	     -5.47063935	      0.74123335	      2.68921925	    -19.71923964	      4.61699844	    -10.96459828	     31.32393918	     -1.55857665	      2.91948099	     -2.15141582	    -51.90541125	      0.00000000	      0.00000000	      0.00000000	      0.00000000	      0.00000000	      0.00000000	      4.25800469	    -19.48985987	     -5.07031372	     11.38265845
      1.00833333	     10.69447178	      3.02740109	     -7.37765007	      0.43244954	      1.03902119	      0.27254357	     -5.82118436	      0.60169536	      2.66549297	    -19.43797467	      4.38278462	    -10.49719067	     31.55980657	     -1.00387815	      2.90447191	     -1.96509758	    -51.44810284	      0.00000000	      0.00000000	      0.00000000	      0.00000000	      0.00000000	      0.00000000	      4.21871139	    -19.46692285	     -5.21211937	     11.77970596
      1.01250000	     10.71825537	      2.99799737	     -7.60388960	      0.43636658	      1.03946715	      0.27290422	     -6.08297538	      0.53997420	      2.61252328	    -19.42926400	      4.39598307	    -10.48385375	     31.57014498	     -0.44978546	      2.80362115	     -1.84760766	    -51.05683099	      0.00000000	      0.00000000	      0.00000000	      0.00000000	      0.00000000	      0.00000000	      4.25453010	    -19.61327183	     -5.25935085	     11.78922279
      1.01666667	     10.61277262	      3.11446584	     -7.69757175	      0.44115650	      1.03990217	      0.27312004	     -6.50666350	      0.35684646	      2.70538443	    -18.88926624	      4.34687960	    -10.20012893	     31.69599922	      0.11511534	      2.88675350	     -1.48704634	    -50.42991267	      0.00000000	      0.00000000	      0.00000000	      0.00000000	      0.00000000	      0.00000000	      4.18050644	    -19.42647058	     -5.45769769	     11.97676979
      1.02083333	     10.57597616	      3.09909654	     -7.87818079	      0.44536580	      1.04029912	      0.27335705	     -6.78536657	      0.28635130	      2.70657540	    -18.75708686	      4.31449960	    -10.08734691	     31.74661378	      0.64087762	      2.83129376	     -1.21948980	    -49.84130509	      0.00000000	      0.00000000	      0.00000000	      0.00000000	      0.00000000	      0.00000000	      4.18200072	    -19.43350155	     -5.49100515	     12.05537327
      1.02500000	     10.45860986	      3.12316578	     -7.95777658	      0.44971486	      1.04058540	      0.27355537	     -7.10457717	      0.20453587	      2.70321286	    -18.36237474	      4.20723553	     -9.82413711	     31.85662141	      1.27182277	      2.78987408	     -0.91055002	    -49.27484050	      0.00000000	      0.00000000	      0.00000000	      0.00000000	      0.00000000	      0.00000000	      4.12213408	    -19.33087519	     -5.58851554	     12.22967848
      1.02916667	     10.28365916	      3.10347829	     -8.03249061	      0.45397650	      1.04073725	      0.27357997	     -7.29479070	      0.15599413	      2.63117409	    -18.09993853	      4.03716789	     -9.47492284	     32.07196953	      1.95470445	      2.71687627	     -0.56337365	    -48.68379038	      0.00000000	      0.00000000	      0.00000000	      0.00000000	      0.00000000	      0.00000000	      4.10662951	    -19.19719145	     -5.55457842	     12.42648370
      1.03333333	     10.28439490	      3.04006669	     -8.21447837	      0.45763228	      1.04094228	      0.27398859	     -7.50549788	      0.14925388	      2.58757084	    -18.11904124	      4.04450176	     -9.45531125	     32.08756809	      2.49267829	      2.56721608	     -0.39637856	    -48.13732290	      0.00000000	      0.00000000	      0.00000000	      0.00000000	      0.00000000	      0.00000000	      4.13052439	    -19.34673744	     -5.61770651	     12.43204128
      1.03750000	     10.09936523	      3.01244848	     -8.24288102	      0.46212337	      1.04110470	      0.27406244	     -7.78529473	      0.14229501	      2.62199419	    -17.71131040	      4.01139159	     -9.24355506	     32.18651348	      3.08974318	      2.49591999	      0.06696203	    -47.35799692	      0.00000000	      0.00000000	      0.00000000	      0.00000000	      0.00000000	      0.00000000	      4.00172477	    -19.13140863	     -5.60377673	     12.55837519
      1.04166667	      9.99099669	      2.93059834	     -8.33957069	      0.46608202	      1.04119184	      0.27419285	     -7.97101639	      0.17047041	      2.60359691	    -17.60108464	      3.95610461	     -9.12945372	     32.24143366	      3.66119386	      2.35487488	      0.40328516	    -46.65443280	      0.00000000	      0.00000000	      0.00000000	      0.00000000	      0.00000000	      0.00000000	      3.98316956	    -19.11373068	     -5.55534435	     12.62167160
      1.04583333	      9.50304354	      2.95079308	     -8.16110823	      0.46928926	      1.04115468	      0.27533143	     -7.82538507	      0.35635987	      2.72918377	    -17.26016756	      3.63856509	     -9.32354957	     32.25540208	      4.71632061	      2.12638404	      0.77134632	    -45.92733212	      0.00000000	      0.00000000	      0.00000000	      0.00000000	      0.00000000	      0.00000000	      3.80138977	    -18.74205128	     -5.68941934	     12.56236543
      1.05000000	      9.47275936	      2.85992367	     -8.36104631	      0.47319318	      1.04115532	      0.27558558	     -8.02829177	      0.35723262	      2.70812540	    -17.26291018	      3.65576728	     -9.31696682	     32.26670311	      5.20740508	      1.97670283	      0.99358437	    -45.23360841	      0.00000000	      0.00000000	      0.00000000	      0.00000000	      0.00000000	      0.00000000	      3.80681780	    -18.84696432	     -5.66824730	     12.58471218
      1.05416667	      9.25830287	      2.71221811	     -8.42837939	      0.47795181	      1.04112968	      0.27570716	     -8.34820040	      0.48463849	      2.86864783	    -16.77318766	      3.56791542	     -9.17144983	     32.32735171	      5.75880617	      1.77683886	      1.46355845	    -44.37401400	      0.00000000	      0.00000000	      0.00000000	      0.00000000	      0.00000000	      0.00000000	      3.70448783	    -18.58609012	     -5.49992237	     12.82163209
      1.05833333	      9.20229559	      2.58728084	     -8.61554446	      0.48212960	      1.04108051	      0.27593402	     -8.56691635	      0.52653756	      2.87246113	    -16.75178207	      3.56118120	     -9.13728373	     32.34476861	      6.18633571	      1.59941148	      1.76111528	    -43.54188314	      0.00000000	      0.00000000	      0.00000000	      0.00000000	      0.00000000	      0.00000000	      3.68476712	    -18.59007024	     -5.42293074	     12.87562760
      1.06250000	      9.03365818	      2.41402229	     -8.68013926	      0.48664373	      1.04096983	      0.27606241	     -8.89828079	      0.67090318	      2.99333666	    -16.30672092	      3.48793017	     -8.96588787	     32.39337948	      6.71491931	      1.35942753	      2.17738829	    -42.71315301	      0.00000000	      0.00000000	      0.00000000	      0.00000000	      0.00000000	      0.00000000	      3.57858346	    -18.43779837	     -5.27696012	     13.09222144
      1.06666667	      8.94343283	      2.25633547	     -8.83064352	      0.49086194	      1.04081372	      0.27622467	     -9.14075344	      0.75768159	      3.02974809	    -16.17136892	      3.44161697	     -8.89130883	     32.41897780	      7.16295286	      1.13855638	      2.50513769	    -41.85855150	      0.00000000	      0.00000000	      0.00000000	      0.00000000	      0.00000000	      0.00000000	      3.55514259	    -18.41859183	     -5.14069685	     13.20590561
      1.07083333	      8.79166974	      2.05052158	     -8.91831251	      0.49530588	      1.04060976	      0.27637809	     -9.44322507	      0.93033571	      3.15016497	    -15.83288159	      3.35614324	     -8.75352996	     32.45944885	      7.64344698	      0.86214681	      2.92114686	    -40.98328900	      0.00000000	      0.00000000	      0.00000000	      0.00000000	      0.00000000	      0.00000000	      3.49061598	    -18.30212378	     -4.95133046	     13.40768201
      1.07500000	      8.65254875	      1.84407602	     -9.01018727	      0.49965740	      1.04034945	      0.27650944	     -9.72187983	      1.10044726	      3.26502041	    -15.56223605	      3.26131341	     -8.66701306	     32.49274149	      8.11422433	      0.57834563	      3.29929319	    -40.10464883	      0.00000000	      0.00000000	      0.00000000	      0.00000000	      0.00000000	      0.00000000	      3.45140352	    -18.21563056	     -4.75611210	     13.59169003
      1.07916667	      8.52764689	      1.63936670	     -9.12885401	      0.50398566	      1.04006865	      0.27671449	     -9.99090447	      1.26073500	      3.35762280	    -15.33670107	      3.21911650	     -8.60938418	     32.51983397	      8.55071510	      0.29175633	      3.66945892	    -39.19537780	      0.00000000	      0.00000000	      0.00000000	      0.00000000	      0.00000000	      0.00000000	      3.38224066	    -18.14740337	     -4.59118168	     13.73418895
